<svg width="40" height="40" viewBox="0 0 40 40" fill="none" xmlns="http://www.w3.org/2000/svg">
<circle cx="20" cy="20" r="20" fill="white"/>
<path d="M19.1429 8H20.8571V12.2857H19.1429V8ZM24.8754 13.9143L27.8806 10.9091L29.0926 12.1211L26.0874 15.1263L24.8754 13.9143ZM27.7143 19.1429H32V20.8571H27.7143V19.1429ZM24.8754 26.0857L26.0874 24.8746L29.0926 27.8797L27.8806 29.0917L24.8754 26.0857ZM19.1429 27.7143H20.8571V32H19.1429V27.7143ZM10.9091 27.8789L13.9143 24.8737L15.1263 26.0857L12.122 29.0909L10.9091 27.8789ZM8 19.1429H12.2857V20.8571H8V19.1429ZM10.91 12.1211L12.122 10.9091L15.1271 13.9143L13.9143 15.1263L10.91 12.1211ZM20 14.8571C18.9828 14.8571 17.9885 15.1588 17.1428 15.7239C16.297 16.289 15.6379 17.0922 15.2486 18.0319C14.8594 18.9716 14.7575 20.0057 14.956 21.0033C15.1544 22.0009 15.6442 22.9173 16.3635 23.6365C17.0827 24.3558 17.9991 24.8456 18.9967 25.044C19.9943 25.2425 21.0284 25.1406 21.9681 24.7514C22.9078 24.3621 23.711 23.703 24.2761 22.8572C24.8412 22.0115 25.1429 21.0172 25.1429 20C25.1429 18.636 24.601 17.3279 23.6365 16.3635C22.6721 15.399 21.364 14.8571 20 14.8571Z" fill="black"/>
</svg>
