<svg width="436" height="436" viewBox="0 0 436 436" fill="none" xmlns="http://www.w3.org/2000/svg">
<path d="M218 436C338.398 436 436 338.398 436 218C436 97.6019 338.398 0 218 0C97.6019 0 0 97.6019 0 218C0 338.398 97.6019 436 218 436Z" fill="#95C900" fill-opacity="0.95"/>
<path d="M239.109 177.803L281.521 153.389L308.659 137.764C312.86 135.373 317.289 134.178 321.964 134.178H374.447V153.424L296.988 153.389C292.19 153.389 287.761 154.584 283.683 156.975L239.109 182.654L235.506 184.622C232.624 186.292 230.286 188.12 228.493 190.106C226.7 192.075 225.382 194.307 224.538 196.75C223.695 199.211 223.132 201.548 222.833 203.763C222.535 205.978 222.324 208.649 222.201 211.76V214.643L255.28 195.608L282.417 179.806C286.495 177.539 290.872 176.397 295.529 176.397H331.825C343.566 176.414 353.602 180.58 361.915 188.911C370.229 197.242 374.395 207.278 374.395 219.019V219.371H355.166V219.002C355.166 212.534 352.899 207.015 348.347 202.462C343.794 197.91 338.275 195.625 331.807 195.625L270.518 195.59C265.72 195.59 261.291 196.733 257.213 199L222.166 219.283H202.937L202.99 93.4713H222.218L222.183 187.47L229.372 183.515L239.074 177.768L239.109 177.803Z" fill="white"/>
<path d="M187.048 260.939L144.636 285.353L117.498 300.978C113.297 303.369 108.868 304.564 104.193 304.564H51.7097V285.318L129.169 285.353C133.967 285.353 138.396 284.158 142.474 281.767L187.048 256.088L190.651 254.119C193.534 252.45 195.871 250.622 197.664 248.636C199.457 246.667 200.775 244.435 201.619 241.992C202.462 239.531 203.025 237.193 203.324 234.979C203.622 232.764 203.833 230.093 203.956 226.982V224.099L170.878 243.134L143.74 258.935C139.662 261.203 135.285 262.345 130.628 262.345H94.3325C82.5914 262.328 72.5553 258.162 64.2417 249.831C55.928 241.5 51.7624 231.464 51.7624 219.722V219.371H70.991V219.74C70.991 226.208 73.2584 231.727 77.8107 236.279C82.3629 240.832 87.8819 243.117 94.35 243.117L155.639 243.152C160.437 243.152 164.867 242.009 168.944 239.742L203.992 219.459H223.22L223.167 345.271H203.939L203.974 251.272L196.785 255.227L187.083 260.974L187.048 260.939Z" fill="white"/>
</svg>
