<svg width="1504" height="226" viewBox="0 0 1504 226" fill="none" xmlns="http://www.w3.org/2000/svg">
<path d="M49.0829 114.364L106.714 81.2388L143.59 60.0365C149.289 56.7863 155.308 55.1696 161.648 55.1696L232.92 55.2033V81.2893L127.707 81.2388C121.198 81.2388 115.179 82.8554 109.631 86.1057L49.0829 120.949L44.1931 123.626C40.2813 125.9 37.1114 128.375 34.6666 131.053C32.2217 133.731 30.4344 136.745 29.2879 140.08C28.1413 143.414 27.3657 146.58 26.961 149.594C26.5564 152.609 26.2697 156.213 26.1011 160.44V164.347L71.0193 138.53L107.895 117.092C113.425 114.01 119.377 112.461 125.717 112.461H175.019C190.97 112.495 204.594 118.153 215.907 129.453C227.204 140.753 232.87 154.377 232.853 170.292V170.78H206.735V170.275C206.735 161.501 203.649 154.024 197.461 147.843C191.273 141.663 183.804 138.581 175.002 138.564L91.7585 138.53C85.2501 138.53 79.2307 140.063 73.7002 143.161L26.0842 170.696H0L0.0674447 0H26.1854L26.1348 127.517L35.8974 122.161L49.0829 114.364Z" fill="black"/>
<path d="M454.797 118.928L410.114 144.744L373.239 165.947C367.709 169.197 361.672 170.814 355.181 170.814H305.879C289.928 170.78 276.304 165.138 264.99 153.838C253.676 142.538 248.028 128.931 248.045 113C248.045 97.0688 253.71 83.4617 265.024 72.1617C276.338 60.8785 289.962 55.2201 305.912 55.237L480.931 55.3043L480.881 170.864H454.763V118.928H454.797ZM305.895 144.711L389.139 144.744C395.647 144.744 401.667 143.128 407.197 139.877L436.738 122.818C440.65 120.713 443.938 118.069 446.636 114.903C449.333 111.737 451.357 108.167 452.739 104.176C454.122 100.201 454.813 96.0079 454.813 91.6125V81.3735L305.912 81.3061C301.68 81.3061 297.617 82.1145 293.705 83.748C289.793 85.3647 286.421 87.6045 283.571 90.4505C280.722 93.2966 278.445 96.6984 276.726 100.69C275.023 104.681 274.163 108.773 274.163 113C274.163 121.622 277.282 129.049 283.554 135.314C289.81 141.578 297.263 144.711 305.879 144.711H305.895Z" fill="black"/>
<path d="M536.084 107.257L581.019 81.424L617.895 60.2218C623.425 56.9715 629.377 55.3548 635.717 55.3548H685.019C700.97 55.3885 714.593 61.0469 725.907 72.3301C737.204 83.6301 742.87 97.2541 742.853 113.168C742.853 129.1 737.187 142.707 725.874 154.007C714.56 165.307 700.919 170.948 684.985 170.931L536.084 170.864V225.966H509.949L510.017 55.2875H536.135V107.224L536.084 107.257ZM684.985 81.4745L601.742 81.4408C595.233 81.4408 589.214 83.0575 583.683 86.3078L554.143 103.115C548.443 106.533 544.009 110.962 540.839 116.402C537.669 121.841 536.067 127.82 536.067 134.32V144.812L684.968 144.879C693.753 144.879 701.239 141.764 707.427 135.499C713.616 129.251 716.701 121.774 716.718 113.067C716.718 104.378 713.632 96.9341 707.444 90.7537C701.256 84.5732 693.787 81.4914 684.985 81.4745Z" fill="black"/>
<path d="M994.27 130.868L970.091 144.997L933.215 166.199C927.516 169.449 921.497 171.066 915.157 171.066L761.366 170.999V144.913L949.099 144.997C955.607 144.997 961.627 143.38 967.157 140.13L968.135 139.642V115.998L761.383 115.913C761.383 114.937 761.383 114.044 761.383 113.236C761.383 97.3046 767.049 83.6975 778.362 72.3975C789.676 61.1143 803.3 55.4559 819.251 55.4727L994.27 55.5401V81.6261L819.234 81.5587C811.09 81.5587 803.975 84.3542 797.871 89.9621C791.767 95.57 788.378 102.357 787.737 110.322L994.253 110.407V130.885L994.27 130.868Z" fill="black"/>
<path d="M1044.33 107.476L1089.25 81.6598L1126.12 60.4575C1131.65 57.2073 1137.67 55.5906 1144.18 55.5906H1193.25C1209.2 55.6243 1222.82 61.2827 1234.14 72.5827C1245.43 83.8827 1251.1 97.5067 1251.08 113.421V171.201H1224.93V113.404C1224.96 104.63 1221.86 97.1531 1215.69 90.9726C1209.5 84.7921 1202.02 81.6934 1193.23 81.6934L1109.99 81.6598C1103.48 81.6598 1097.46 83.2765 1091.93 86.5267L1062.39 103.334C1056.69 106.752 1052.26 111.181 1049.09 116.621C1045.92 122.06 1044.31 128.039 1044.31 134.539V171.117H1018.18L1018.25 0.437851H1044.36L1044.31 107.476H1044.33Z" fill="black"/>
<path d="M1477.87 119.366L1433.18 145.182L1396.31 166.385C1390.78 169.635 1384.74 171.251 1378.25 171.251H1328.95C1313 171.218 1299.37 165.576 1288.06 154.276C1276.75 142.976 1271.11 129.369 1271.11 113.438C1271.11 97.5067 1276.78 83.8996 1288.09 72.5996C1299.41 61.3164 1313.03 55.658 1328.98 55.6748L1504 55.7422L1503.95 171.302H1477.83V119.366H1477.87ZM1328.96 145.149L1412.21 145.182C1418.72 145.182 1424.74 143.566 1430.27 140.315L1459.81 123.256C1463.72 121.151 1467.01 118.507 1469.7 115.341C1472.4 112.175 1474.43 108.605 1475.81 104.613C1477.19 100.639 1477.88 96.4458 1477.88 92.0672V81.8282L1328.98 81.7608C1324.75 81.7608 1320.69 82.5692 1316.77 84.1858C1312.86 85.8025 1309.49 88.0423 1306.64 90.8884C1303.79 93.7344 1301.51 97.1362 1299.79 101.127C1298.09 105.119 1297.23 109.211 1297.23 113.438C1297.23 122.06 1300.35 129.487 1306.62 135.752C1312.88 142.016 1320.33 145.149 1328.96 145.149Z" fill="black"/>
</svg>
