<svg width="263" height="32" viewBox="0 0 263 32" fill="none" xmlns="http://www.w3.org/2000/svg">
<g clip-path="url(#clip0_69_130)">
<path d="M6.94126 16.1933L15.0865 11.4994L20.2986 8.50062C21.1062 8.03965 21.9534 7.81165 22.8551 7.81165H32.9326V11.5093H18.0592C17.1376 11.5043 16.2855 11.7323 15.5026 12.1933L6.94126 17.1252L6.25258 17.5068C5.70263 17.829 5.25177 18.1809 4.90496 18.5576C4.55814 18.9393 4.30546 19.3656 4.14692 19.8364C3.98342 20.3073 3.87442 20.7584 3.81992 21.1797C3.76047 21.6059 3.72083 22.1165 3.70101 22.7162V23.2714L10.0527 19.6134L15.2648 16.5799C16.0476 16.1437 16.885 15.9257 17.7817 15.9257H24.7527C27.007 15.9257 28.9343 16.7286 30.5346 18.3296C32.13 19.9306 32.9326 21.8587 32.9276 24.114V24.1834H29.2365V24.114C29.2365 22.8699 28.8005 21.8141 27.9285 20.9368C27.0565 20.0595 25.9963 19.6233 24.7527 19.6233H12.9758C12.0543 19.6183 11.2021 19.8364 10.4243 20.2726L3.69111 24.1735H0L0.00990901 0H3.70101L3.69111 18.057L5.07341 17.2986L6.93631 16.1933H6.94126Z" fill="white"/>
<path d="M64.2946 16.8426L57.9776 20.5006L52.7655 23.5043C51.9826 23.9653 51.1305 24.1933 50.2089 24.1933H43.2379C40.9836 24.1933 39.0563 23.3903 37.456 21.7893C35.8557 20.1884 35.0581 18.2602 35.063 16.005C35.063 13.7497 35.8656 11.8216 37.4659 10.2206C39.0663 8.62454 40.9936 7.82156 43.2479 7.82156L67.9907 7.83148V24.1983H64.2896V16.8426H64.2946ZM43.2479 20.4907H55.0148C55.9363 20.4957 56.7836 20.2677 57.5664 19.8067L61.743 17.3928C62.2979 17.0954 62.7637 16.7187 63.1402 16.2726C63.5217 15.8216 63.809 15.316 64.0023 14.7559C64.1955 14.1908 64.2946 13.601 64.2946 12.9765V11.5242L43.2429 11.5143C42.6434 11.5143 42.0687 11.6283 41.5187 11.8612C40.9688 12.0942 40.4882 12.4064 40.0869 12.8129C39.6856 13.2144 39.3635 13.7001 39.1208 14.2602C38.878 14.8253 38.7591 15.4052 38.7591 16.005C38.7591 17.2243 39.2 18.2801 40.0869 19.1673C40.9737 20.0545 42.0241 20.4957 43.2429 20.4957L43.2479 20.4907Z" fill="white"/>
<path d="M75.7892 15.1871L82.1408 11.5291L87.353 8.53035C88.1358 8.06939 88.9731 7.84138 89.8699 7.84138H96.8408C99.0951 7.84138 101.022 8.64436 102.623 10.2453C104.218 11.8463 105.021 13.7745 105.021 16.0297C105.021 18.285 104.218 20.2131 102.618 21.8141C101.017 23.4151 99.0902 24.2131 96.8359 24.2131L75.7842 24.2032V32.005H72.0881L72.098 7.83643H75.7892V15.1921V15.1871ZM96.8408 11.539H85.0739C84.1524 11.5341 83.3002 11.7621 82.5174 12.223L78.3407 14.6022C77.5331 15.083 76.9089 15.7125 76.458 16.4808C76.0072 17.254 75.7842 18.0966 75.7842 19.0186V20.5056L96.8359 20.5155C98.0795 20.5155 99.1348 20.0743 100.012 19.1871C100.884 18.2999 101.325 17.2441 101.325 16.0099C101.325 14.7807 100.889 13.7249 100.017 12.8525C99.1447 11.9802 98.0844 11.539 96.8408 11.539Z" fill="white"/>
<path d="M140.559 18.5328L137.141 20.5353L131.928 23.539C131.121 24 130.274 24.228 129.372 24.228L107.632 24.2181V20.5254L134.173 20.5353C135.094 20.5353 135.947 20.3073 136.724 19.8463L136.863 19.777V16.4263L107.637 16.4114C107.637 16.2726 107.637 16.1487 107.637 16.0297C107.637 13.7745 108.439 11.8463 110.039 10.2454C111.64 8.64436 113.567 7.84634 115.821 7.84634L140.564 7.85626V11.5489L115.821 11.539C114.672 11.539 113.666 11.9356 112.799 12.7286C111.937 13.5217 111.456 14.4833 111.367 15.6084L140.564 15.6233V18.5229L140.559 18.5328Z" fill="white"/>
<path d="M147.634 15.2218L153.986 11.5638L159.198 8.56504C159.981 8.10408 160.833 7.87607 161.755 7.87607H168.691C170.945 7.87607 172.873 8.67904 174.473 10.28C176.068 11.881 176.871 13.8092 176.871 16.0644V24.2478H173.175V16.0644C173.175 14.8203 172.744 13.7645 171.867 12.8872C170.995 12.0149 169.935 11.5737 168.691 11.5737H156.924C156.002 11.5688 155.15 11.7968 154.367 12.2577L150.191 14.6369C149.383 15.1177 148.759 15.7472 148.308 16.5155C147.857 17.2838 147.634 18.1313 147.634 19.0533V24.2329H143.938L143.948 0.0644226H147.639V15.2218H147.634Z" fill="white"/>
<path d="M208.922 16.9021L202.605 20.5601L197.392 23.5638C196.61 24.0248 195.757 24.2528 194.836 24.2528H187.865C185.611 24.2528 183.683 23.4498 182.083 21.8488C180.483 20.2478 179.685 18.3197 179.69 16.0644C179.69 13.8092 180.493 11.881 182.093 10.2801C183.693 8.67906 185.621 7.88104 187.875 7.88104L212.618 7.89096V24.2577H208.917V16.9021H208.922ZM187.875 20.5502H199.642C200.563 20.5551 201.411 20.3271 202.193 19.8662L206.37 17.4523C206.925 17.1549 207.391 16.7782 207.767 16.3321C208.149 15.881 208.436 15.3755 208.629 14.8154C208.822 14.2503 208.922 13.6605 208.922 13.0359V11.5836L187.87 11.5737C187.27 11.5737 186.696 11.6877 186.146 11.9157C185.591 12.1437 185.115 12.461 184.714 12.8674C184.313 13.2689 183.99 13.7546 183.748 14.3147C183.505 14.8798 183.386 15.4597 183.386 16.0595C183.386 17.2788 183.827 18.3346 184.714 19.2169C185.601 20.1041 186.651 20.5452 187.87 20.5452L187.875 20.5502Z" fill="white"/>
<path d="M216.031 24.2578V20.5651H219.727V24.2627H216.031V24.2578Z" fill="white"/>
<path d="M223.146 7.89591H226.837V24.2627H223.136V7.89591H223.146ZM223.156 0.0941772H226.847V3.79182H223.151V0.0941772H223.156Z" fill="white"/>
<path d="M238.262 7.90584H254.825C257.079 7.91575 259.007 8.71377 260.602 10.3148C262.202 11.9157 263 13.8439 263 16.0991C263 18.3544 262.197 20.2825 260.597 21.8835C258.997 23.4845 257.07 24.2825 254.815 24.2776H238.252C236.781 24.2677 235.418 23.9009 234.165 23.1623C232.911 22.4238 231.915 21.4275 231.182 20.1735C230.444 18.9195 230.077 17.5564 230.082 16.0843C230.082 13.829 230.885 11.9009 232.485 10.2999C234.086 8.6989 236.013 7.90088 238.267 7.90088L238.262 7.90584ZM238.257 20.575H254.82C256.064 20.5849 257.119 20.1388 257.996 19.2516C258.873 18.3643 259.309 17.3086 259.309 16.0744C259.309 14.8451 258.873 13.7894 257.996 12.917C257.124 12.0446 256.064 11.6035 254.82 11.6035H238.257C237.45 11.5985 236.702 11.7968 236.013 12.1983C235.324 12.5998 234.774 13.15 234.373 13.8389C233.972 14.5279 233.768 15.2763 233.768 16.0843C233.768 17.3036 234.209 18.3594 235.096 19.2416C235.983 20.1289 237.033 20.57 238.252 20.57L238.257 20.575Z" fill="white"/>
</g>
<defs>
<clipPath id="clip0_69_130">
<rect width="263" height="32" fill="white"/>
</clipPath>
</defs>
</svg>
