<svg width="71" height="71" viewBox="0 0 71 71" fill="none" xmlns="http://www.w3.org/2000/svg">
<circle cx="35.5" cy="35.5" r="35.5" fill="black"/>
<path d="M52.2443 36.9761C51.9504 40.1565 50.7568 43.1875 48.8031 45.7143C46.8495 48.2411 44.2166 50.1593 41.2126 51.2443C38.2086 52.3294 34.9577 52.5365 31.8402 51.8414C28.7228 51.1463 25.8678 49.5777 23.6093 47.3192C21.3508 45.0607 19.7823 42.2057 19.0871 39.0883C18.392 35.9709 18.5991 32.72 19.6842 29.7159C20.7693 26.7119 22.6874 24.079 25.2143 22.1254C27.7411 20.1717 30.772 18.9781 33.9525 18.6842C32.0904 21.2034 31.1944 24.3071 31.4274 27.4311C31.6603 30.555 33.0068 33.4916 35.2219 35.7067C37.437 37.9217 40.3735 39.2682 43.4975 39.5012C46.6214 39.7341 49.7252 38.8381 52.2443 36.9761Z" fill="white"/>
</svg>
