<svg width="71" height="71" viewBox="0 0 71 71" fill="none" xmlns="http://www.w3.org/2000/svg">
<circle cx="35.5" cy="35.5" r="35.5" fill="white"/>
<path d="M33.9785 14.2H37.0214V21.8071H33.9785V14.2ZM44.1538 24.6979L49.488 19.3637L51.6393 21.515L46.3051 26.8492L44.1538 24.6979ZM49.1928 33.9786H56.7999V37.0214H49.1928V33.9786ZM44.1538 46.3021L46.3051 44.1524L51.6393 49.4865L49.488 51.6378L44.1538 46.3021ZM33.9785 49.1929H37.0214V56.8H33.9785V49.1929ZM19.3637 49.485L24.6978 44.1508L26.8491 46.3021L21.5165 51.6363L19.3637 49.485ZM14.2 33.9786H21.8071V37.0214H14.2V33.9786ZM19.3652 21.515L21.5165 19.3637L26.8506 24.6979L24.6978 26.8492L19.3652 21.515ZM35.5 26.3714C33.6945 26.3714 31.9296 26.9068 30.4284 27.9099C28.9272 28.9129 27.7572 30.3386 27.0663 32.0066C26.3753 33.6747 26.1946 35.5101 26.5468 37.2809C26.899 39.0517 27.7684 40.6782 29.0451 41.9549C30.3217 43.2315 31.9483 44.1009 33.7191 44.4532C35.4898 44.8054 37.3253 44.6246 38.9933 43.9337C40.6613 43.2428 42.087 42.0727 43.0901 40.5716C44.0931 39.0704 44.6285 37.3055 44.6285 35.5C44.6285 33.0789 43.6668 30.7571 41.9548 29.0451C40.2429 27.3332 37.921 26.3714 35.5 26.3714Z" fill="black"/>
</svg>
