<svg width="1353" height="1117" viewBox="0 0 1353 1117" fill="none" xmlns="http://www.w3.org/2000/svg">
<path d="M1352.08 0.490051C1331.94 9.8551 1314.08 26.0261 1298.55 48.9923C1283.01 71.9693 1353.34 145.136 1352.08 286.756L1352.44 1107.72" stroke="white" stroke-miterlimit="10"/>
<path d="M1342.63 1108.02L1342.44 680.883L1336.42 309.896C1337.63 172.851 1265.86 104.834 1280.9 82.5976C1295.94 60.361 1312.13 45.5403 1331.62 36.4802" stroke="white" stroke-miterlimit="10"/>
<path d="M1332.82 1108.32L1332.64 687.133L1320.77 333.058C1321.95 200.575 1248.71 137.721 1263.25 116.225C1277.79 94.7395 1292.32 81.2473 1311.16 72.4811" stroke="white" stroke-miterlimit="10"/>
<path d="M1323.01 1108.62L1322.83 693.373L1305.12 356.209C1306.25 228.3 1231.58 170.585 1245.62 149.841C1259.65 129.096 1272.52 116.943 1290.7 108.482" stroke="white" stroke-miterlimit="10"/>
<path d="M1313.21 1108.91L1313.03 699.613L1289.46 379.361C1290.56 256.014 1214.43 203.461 1227.96 183.457C1241.49 163.453 1252.7 152.639 1270.23 144.483" stroke="white" stroke-miterlimit="10"/>
<path d="M1303.4 1109.21L1303.22 705.863L1273.81 402.523C1274.86 283.75 1197.29 236.348 1210.32 217.084C1223.36 197.82 1232.9 188.346 1249.78 180.484" stroke="white" stroke-miterlimit="10"/>
<path d="M1293.59 1109.51L1293.42 712.103L1258.16 425.674C1259.17 311.464 1180.15 269.223 1192.68 250.689C1205.21 232.166 1213.08 224.032 1229.33 216.474" stroke="white" stroke-miterlimit="10"/>
<path d="M1283.78 1109.8L1283.61 718.343L1242.5 448.825C1243.47 339.189 1162.99 302.088 1175.03 284.305C1187.06 266.523 1193.27 259.728 1208.87 252.475" stroke="white" stroke-miterlimit="10"/>
<path d="M1273.98 1110.1L1273.81 724.583L1226.85 471.977C1227.78 366.903 1145.86 334.964 1157.38 317.922C1168.92 300.879 1173.46 295.424 1188.4 288.476" stroke="white" stroke-miterlimit="10"/>
<path d="M1264.16 1110.4L1263.99 730.833L1211.19 495.139C1212.09 394.639 1128.71 367.85 1139.74 351.549C1150.77 335.247 1153.65 331.131 1167.94 324.477" stroke="white" stroke-miterlimit="10"/>
<path d="M1254.36 1110.69L1254.2 737.073L1195.54 518.29C1196.39 422.353 1111.57 400.726 1122.1 385.165C1132.62 369.604 1133.85 366.827 1147.49 360.478" stroke="white" stroke-miterlimit="10"/>
<path d="M1244.55 1110.99L1244.39 743.313L1179.89 541.441C1180.7 450.078 1094.43 433.591 1104.46 418.77C1114.48 403.949 1114.04 402.512 1127.03 396.468" stroke="white" stroke-miterlimit="10"/>
<path d="M1234.73 1111.28L1234.58 749.552L1164.22 564.593C1164.99 477.792 1077.27 466.467 1086.8 452.386C1096.32 438.306 1094.21 438.208 1106.55 432.458" stroke="white" stroke-miterlimit="10"/>
<path d="M1224.93 1111.59L1224.77 755.803L1148.57 587.755C1149.3 505.528 1060.13 499.353 1069.15 486.013C1078.17 472.674 1074.4 473.915 1086.1 468.47" stroke="white" stroke-miterlimit="10"/>
<path d="M1215.13 1111.88L1214.98 762.043L1132.93 610.906C1133.61 533.242 1043 532.229 1051.53 519.63C1060.05 507.03 1054.61 509.611 1065.66 504.471" stroke="white" stroke-miterlimit="10"/>
<path d="M1205.32 1112.18L1205.17 768.272L1117.27 634.047C1117.92 560.956 1025.85 565.094 1033.87 553.235C1041.89 541.376 1034.79 545.296 1045.19 540.461" stroke="white" stroke-miterlimit="10"/>
<path d="M1195.5 1112.48L1195.36 774.522L1101.61 657.209C1102.21 588.681 1008.69 597.969 1016.22 586.862C1023.74 575.744 1014.98 580.992 1024.73 576.462" stroke="white" stroke-miterlimit="10"/>
<path d="M1185.7 1112.77L1185.55 780.762L1085.96 680.36C1086.53 616.405 991.564 630.845 998.576 620.467C1005.6 610.089 995.165 616.678 1004.26 612.452" stroke="white" stroke-miterlimit="10"/>
<path d="M1175.89 1113.07L1175.75 787.002L1070.3 703.511C1070.82 644.119 974.411 663.721 980.929 654.083C987.447 644.446 975.354 652.374 983.801 648.453" stroke="white" stroke-miterlimit="10"/>
<path d="M1166.08 1113.36L1165.94 793.242L1054.65 726.663C1055.13 671.844 957.269 696.596 963.283 687.7C969.296 678.803 955.542 688.07 963.339 684.444" stroke="white" stroke-miterlimit="10"/>
<path d="M1156.27 1113.67L1156.14 799.492L1039 749.825C1039.44 699.569 940.128 729.472 945.647 721.327C951.167 713.17 935.753 723.777 942.887 720.455" stroke="white" stroke-miterlimit="10"/>
<path d="M1146.47 1113.96L1146.33 805.732L1023.33 772.976C1023.74 727.294 922.986 762.348 927.989 754.943C933.004 747.527 915.93 759.473 922.425 756.456" stroke="white" stroke-miterlimit="10"/>
<path d="M1136.65 1114.26L1136.52 811.972L1007.67 796.127C1008.04 755.008 905.833 795.223 910.343 788.548C914.852 781.884 896.118 795.158 901.962 792.447" stroke="white" stroke-miterlimit="10"/>
<path d="M1126.85 1114.55L1126.72 818.211L992.036 819.278C992.361 782.733 888.702 828.099 892.707 822.164C896.712 816.24 876.317 830.854 881.511 828.437" stroke="white" stroke-miterlimit="10"/>
<path d="M1117.04 1114.85L1116.92 824.462L976.374 842.441C976.655 810.458 871.549 860.975 875.061 855.791C878.572 850.608 856.505 866.561 861.049 864.449" stroke="white" stroke-miterlimit="10"/>
<path d="M1107.24 1115.15L1107.11 830.702L960.725 865.592C960.972 838.183 854.408 893.85 857.426 889.407C860.432 884.965 836.705 902.257 840.598 900.45" stroke="white" stroke-miterlimit="10"/>
<path d="M1097.42 1115.44L1097.3 836.941L945.053 888.743C945.254 865.897 837.255 926.726 839.756 923.024C842.258 919.321 816.871 937.953 820.113 936.44" stroke="white" stroke-miterlimit="10"/>
<path d="M1087.62 1115.75L1087.5 843.192L929.414 911.905C929.571 893.633 820.124 959.613 822.132 956.651C824.14 953.689 797.081 973.66 799.673 972.452" stroke="white" stroke-miterlimit="10"/>
<path d="M1077.81 1116.04L1077.7 849.432L913.764 935.057C913.888 921.347 802.982 992.488 804.486 990.256C805.989 988.035 777.27 1009.35 779.222 1008.44" stroke="white" stroke-miterlimit="10"/>
<path d="M1068 1116.34L1067.88 855.672L898.092 958.208C898.171 949.072 785.818 1025.35 786.828 1023.87C787.837 1022.39 757.447 1045.04 758.748 1044.44" stroke="white" stroke-miterlimit="10"/>
<path d="M1058.19 1116.63L1058.08 861.9L882.442 981.348C882.487 976.775 768.688 1058.22 769.181 1057.48C769.675 1056.74 737.635 1080.73 738.286 1080.42" stroke="white" stroke-miterlimit="10"/>
<path d="M1048.39 1116.93L1048.27 868.151L717.834 1116.43" stroke="white" stroke-miterlimit="10"/>
<path d="M705.92 1116.43L1015.57 883.756C1015.3 883.44 1027.65 873.727 1027.46 873.509C1027.27 873.302 1036.99 865.657 1036.81 865.461C1036.63 865.265 1043.61 859.777 1043.53 859.679C1042.13 858.372 1040.81 935.111 1039.52 934.73C1038.23 934.349 1037.06 992.87 1035.93 993.076C1034.81 993.294 1033.86 1043.87 1033.02 1044.34C1032.18 1044.82 1031.3 1099.85 1030.36 1100.71" stroke="white" stroke-miterlimit="10"/>
<path d="M694.006 1116.43L1013.44 876.384C1012.9 875.752 1024.6 866.082 1024.22 865.657C1023.84 865.233 1033.04 857.632 1032.68 857.24C1032.33 856.848 1038.94 851.381 1038.77 851.196C1035.98 848.593 1033.31 921.891 1030.73 921.129C1028.14 920.367 1025.76 976.84 1023.53 977.265C1021.29 977.689 1019.35 1026.94 1017.67 1027.9C1015.99 1028.86 1014.23 1082.74 1012.33 1084.47" stroke="white" stroke-miterlimit="10"/>
<path d="M682.092 1116.44L1011.31 869.022C1010.5 868.075 1021.56 858.459 1020.99 857.828C1020.42 857.196 1029.1 849.639 1028.57 849.04C1028.05 848.441 1034.28 843.018 1034.04 842.724C1029.84 838.814 1025.83 908.693 1021.96 907.539C1018.07 906.384 1014.48 960.832 1011.13 961.464C1007.77 962.106 1004.86 1010.02 1002.35 1011.47C999.821 1012.91 997.162 1065.66 994.324 1068.25" stroke="white" stroke-miterlimit="10"/>
<path d="M670.178 1116.44L1009.18 861.661C1008.1 860.398 1018.51 850.837 1017.75 849.987C1016.99 849.138 1025.15 841.624 1024.45 840.829C1023.74 840.034 1029.62 834.633 1029.27 834.252C1023.67 829.046 1018.32 895.484 1013.14 893.948C1007.97 892.413 1003.16 944.814 998.699 945.663C994.234 946.512 990.342 993.109 986.976 995.026C983.61 996.953 980.054 1048.55 976.274 1052.01" stroke="white" stroke-miterlimit="10"/>
<path d="M658.264 1116.46L1007.03 854.299C1005.69 852.72 1015.45 843.214 1014.49 842.147C1013.54 841.09 1021.2 833.609 1020.32 832.618C1019.43 831.627 1024.94 826.259 1024.51 825.78C1017.51 819.268 1010.82 882.286 1004.34 880.369C997.869 878.453 991.867 928.817 986.292 929.884C980.705 930.951 975.836 976.219 971.629 978.615C967.422 981.022 962.98 1031.48 958.245 1035.81" stroke="white" stroke-miterlimit="10"/>
<path d="M646.35 1116.46L1004.9 846.927C1003.3 845.032 1012.4 835.569 1011.25 834.295C1010.11 833.021 1017.25 825.594 1016.19 824.397C1015.13 823.21 1020.27 817.863 1019.76 817.286C1011.36 809.467 1003.31 869.055 995.547 866.757C987.784 864.459 980.581 912.777 973.884 914.062C967.187 915.347 961.331 959.275 956.282 962.161C951.234 965.047 945.894 1014.37 940.217 1019.56" stroke="white" stroke-miterlimit="10"/>
<path d="M634.437 1116.47L1002.77 839.566C1000.9 837.355 1009.35 827.947 1008.01 826.455C1006.68 824.974 1013.31 817.58 1012.07 816.186C1010.84 814.792 1015.61 809.489 1015.01 808.814C1005.22 799.699 995.816 855.857 986.763 853.167C977.71 850.488 969.296 896.769 961.476 898.261C953.657 899.753 946.825 942.364 940.947 945.728C935.068 949.093 928.82 997.28 922.201 1003.33" stroke="white" stroke-miterlimit="10"/>
<path d="M622.522 1116.47L1000.64 832.194C998.497 829.667 1006.29 820.313 1004.77 818.614C1003.24 816.915 1009.36 809.565 1007.94 807.975C1006.53 806.385 1010.94 801.115 1010.25 800.341C999.058 789.92 988.311 842.648 977.968 839.577C967.624 836.506 957.999 880.761 949.069 882.46C940.139 884.17 932.32 925.452 925.6 929.296C918.88 933.14 911.745 980.183 904.173 987.098" stroke="white" stroke-miterlimit="10"/>
<path d="M610.609 1116.47L998.509 824.821C996.097 821.979 1003.25 812.679 1001.54 810.763C999.821 808.857 1005.42 801.55 1003.83 799.753C1002.23 797.968 1006.27 792.719 1005.51 791.859C992.911 780.141 980.817 829.439 969.184 825.987C957.539 822.535 946.713 864.743 936.672 866.659C926.621 868.576 917.837 908.53 910.264 912.853C902.703 917.176 894.671 963.086 886.156 970.862" stroke="white" stroke-miterlimit="10"/>
<path d="M598.694 1116.48L996.377 817.46C993.696 814.302 1000.2 805.046 998.295 802.922C996.388 800.799 1001.48 793.536 999.709 791.543C997.948 789.561 1001.62 784.345 1000.76 783.376C986.774 770.352 973.323 816.219 960.388 812.385C947.453 808.552 935.427 848.724 924.265 850.847C913.102 852.982 903.331 891.607 894.929 896.409C886.526 901.223 877.596 945.979 868.139 954.625" stroke="white" stroke-miterlimit="10"/>
<path d="M586.781 1116.48L994.234 810.099C991.284 806.636 997.14 797.423 995.042 795.082C992.944 792.751 997.521 785.521 995.569 783.343C993.628 781.154 996.927 775.971 995.996 774.914C980.604 760.584 965.807 803.031 951.582 798.806C937.357 794.592 924.119 832.716 911.835 835.058C899.551 837.41 888.803 874.706 879.559 879.988C870.315 885.28 860.499 928.904 850.089 938.411" stroke="white" stroke-miterlimit="10"/>
<path d="M574.867 1116.49L992.103 802.737C988.883 798.959 994.089 789.8 991.8 787.241C989.511 784.693 993.572 777.517 991.452 775.132C989.332 772.747 992.26 767.597 991.25 766.442C974.456 750.816 958.324 789.822 942.798 785.227C927.271 780.631 912.833 816.719 899.439 819.279C886.044 821.838 874.309 857.806 864.224 863.577C854.138 869.349 843.425 911.829 832.072 922.207" stroke="white" stroke-miterlimit="10"/>
<path d="M562.953 1116.49L989.971 795.365C986.482 791.271 991.037 782.167 988.558 779.401C986.078 776.646 989.623 769.502 987.324 766.921C985.024 764.341 987.593 759.212 986.482 757.97C968.286 741.037 950.808 776.624 933.991 771.637C917.175 766.649 901.525 800.712 887.02 803.478C872.503 806.255 859.792 840.894 848.866 847.145C837.939 853.396 826.328 894.743 814.032 905.981" stroke="white" stroke-miterlimit="10"/>
<path d="M551.039 1116.5L987.84 788.004C984.082 783.593 987.997 774.533 985.327 771.56C982.657 768.588 985.697 761.498 983.218 758.711C980.75 755.934 982.937 750.838 981.748 749.487C962.161 731.247 943.325 763.404 925.218 758.035C907.112 752.667 890.262 784.682 874.634 787.666C859.007 790.65 845.321 823.972 833.553 830.691C821.784 837.421 809.287 877.636 796.038 889.734" stroke="white" stroke-miterlimit="10"/>
<path d="M539.125 1116.5L985.708 780.631C981.681 775.905 984.945 766.9 982.085 763.709C979.224 760.529 981.748 753.473 979.089 750.489C976.442 747.505 978.27 742.452 976.992 741.004C956.002 721.468 935.82 750.195 916.423 744.434C897.015 738.685 878.965 768.664 862.216 771.854C845.467 775.056 830.804 807.049 818.195 814.247C805.585 821.456 792.19 860.528 777.999 873.498" stroke="white" stroke-miterlimit="10"/>
<path d="M527.211 1116.5L983.577 773.259C979.28 768.217 981.894 759.266 978.843 755.858C975.791 752.46 977.799 745.447 974.972 742.267C972.145 739.088 973.604 734.057 972.246 732.521C949.854 711.678 928.326 736.975 907.639 730.844C886.941 724.713 867.679 752.645 849.819 756.054C831.96 759.473 816.31 790.127 802.859 797.815C789.408 805.503 775.116 843.443 759.982 857.272" stroke="white" stroke-miterlimit="10"/>
<path d="M515.297 1116.51L981.434 765.909C976.879 760.551 978.831 751.654 975.589 748.028C972.347 744.423 973.839 737.454 970.833 734.067C967.837 730.692 968.925 725.693 967.478 724.06C943.684 701.921 920.81 723.788 898.821 717.265C876.833 710.753 856.36 736.648 837.389 740.264C818.408 743.89 801.782 773.226 787.49 781.394C773.197 789.572 758.019 826.357 741.932 841.058" stroke="white" stroke-miterlimit="10"/>
<path d="M503.383 1116.51L979.302 758.536C974.479 752.863 975.78 744.01 972.347 740.187C968.914 736.365 969.89 729.439 966.704 725.857C963.529 722.285 964.247 717.308 962.722 715.577C937.536 692.132 913.304 710.568 890.026 703.664C866.748 696.76 845.074 720.63 824.982 724.452C804.889 728.296 787.276 756.304 772.154 764.95C757.02 773.608 740.944 809.26 723.915 824.821" stroke="white" stroke-miterlimit="10"/>
<path d="M491.469 1116.52L977.171 751.175C972.078 745.186 972.729 736.387 969.105 732.347C965.481 728.318 965.953 721.425 962.587 717.646C959.233 713.867 959.592 708.934 957.976 707.105C931.389 682.353 905.811 697.37 881.242 690.074C856.663 682.788 833.788 704.611 812.574 708.651C791.36 712.702 772.771 739.382 756.807 748.507C740.832 757.643 723.859 792.153 705.887 808.585" stroke="white" stroke-miterlimit="10"/>
<path d="M479.555 1116.52L975.04 743.803C969.677 737.498 969.688 728.753 965.874 724.495C962.06 720.249 962.015 713.41 958.47 709.424C954.936 705.45 954.925 700.538 953.231 698.622C925.241 672.574 898.328 684.149 872.458 676.483C846.588 668.817 822.502 688.603 800.178 692.861C777.853 697.13 758.288 722.481 741.472 732.086C724.655 741.701 706.795 775.078 687.87 792.37" stroke="white" stroke-miterlimit="10"/>
<path d="M467.629 1116.53L972.897 736.441C967.265 729.821 966.626 721.131 962.621 716.655C958.616 712.201 958.055 705.395 954.341 701.224C950.639 697.054 950.258 692.175 948.474 690.15C919.082 662.795 890.823 670.951 863.663 662.893C836.503 654.846 811.205 672.585 787.77 677.06C764.324 681.547 743.783 705.569 726.125 715.653C708.478 725.748 689.71 757.981 669.842 776.145" stroke="white" stroke-miterlimit="10"/>
<path d="M455.715 1116.53L970.754 729.069C964.853 722.132 963.563 713.486 959.367 708.814C955.172 704.143 954.095 697.38 950.202 693.014C946.32 688.647 945.569 683.801 943.695 681.678C912.912 653.027 883.295 657.742 854.845 649.303C826.384 640.874 799.897 656.577 775.34 661.26C750.783 665.953 729.255 688.647 710.767 699.221C692.279 709.795 672.613 740.895 651.803 759.919" stroke="white" stroke-miterlimit="10"/>
<path d="M443.802 1116.53L968.623 721.697C962.452 714.444 960.512 705.853 956.125 700.963C951.739 696.085 950.157 689.366 946.085 684.792C942.024 680.218 940.913 675.405 938.95 673.195C906.764 643.237 875.801 644.533 846.061 635.702C816.31 626.892 788.612 640.548 762.932 645.448C737.253 650.359 714.749 671.725 695.42 682.767C676.091 693.83 655.538 723.777 633.775 743.661" stroke="white" stroke-miterlimit="10"/>
<path d="M431.888 1116.54L966.491 714.346C960.052 706.778 957.46 698.241 952.883 693.134C948.306 688.037 946.208 681.362 941.956 676.592C937.716 671.823 936.235 667.042 934.193 664.733C900.605 633.469 868.296 631.335 837.255 622.133C806.213 612.932 777.303 624.562 750.514 629.669C723.724 634.787 700.233 654.835 680.062 666.356C659.891 677.899 638.441 706.713 615.735 727.458" stroke="white" stroke-miterlimit="10"/>
<path d="M419.974 1116.54L964.36 706.974C957.651 699.09 954.42 690.596 949.652 685.282C944.884 679.979 942.27 673.347 937.85 668.371C933.441 663.405 931.59 658.646 929.459 656.24C894.469 623.68 860.813 618.115 828.482 608.521C796.139 598.939 766.029 608.521 738.128 613.846C710.217 619.182 685.761 637.891 664.737 649.902C643.725 661.924 621.378 689.594 597.73 711.21" stroke="white" stroke-miterlimit="10"/>
<path d="M408.06 1116.55L962.228 699.613C955.25 691.413 951.369 682.973 946.41 677.442C941.451 671.921 938.322 665.332 933.722 660.16C929.134 654.998 926.912 650.272 924.702 647.767C888.321 613.901 853.308 604.906 819.687 594.931C786.054 584.967 754.743 592.514 725.71 598.046C696.688 603.599 671.244 620.979 649.391 633.469C627.537 645.971 604.304 672.509 579.702 694.985" stroke="white" stroke-miterlimit="10"/>
<path d="M396.146 1116.55L960.096 692.241C952.849 683.725 948.317 675.34 943.168 669.601C938.018 663.873 934.373 657.318 929.593 651.949C924.826 646.58 922.234 641.887 919.946 639.295C882.162 604.133 845.814 591.708 810.891 581.341C775.968 570.996 743.446 576.506 713.302 582.256C683.158 588.016 656.739 604.078 634.044 617.048C611.349 630.028 587.218 655.434 561.674 678.77" stroke="white" stroke-miterlimit="10"/>
<path d="M384.232 1116.55L957.954 684.868C950.449 676.037 945.255 667.706 939.915 661.75C934.575 655.804 930.424 649.303 925.465 643.727C920.529 638.163 917.567 633.502 915.189 630.812C876.003 594.343 838.309 578.488 802.096 567.751C765.872 557.024 732.149 560.487 700.894 566.455C669.64 572.433 642.233 587.156 618.697 600.605C595.161 614.064 570.132 638.326 543.646 662.534" stroke="white" stroke-miterlimit="10"/>
<path d="M372.318 1116.56L955.822 677.507C948.048 668.36 942.203 660.073 936.672 653.909C931.142 647.757 926.475 641.288 921.337 635.517C916.221 629.756 912.889 625.128 910.433 622.329C869.844 584.553 830.804 565.279 793.301 554.15C755.786 543.031 720.852 544.469 688.487 550.643C656.111 556.828 627.728 570.234 603.35 584.161C578.973 598.1 553.058 621.229 525.618 646.297" stroke="white" stroke-miterlimit="10"/>
<path d="M360.404 1116.56L953.691 670.135C945.647 660.672 939.152 652.439 933.441 646.058C927.72 639.687 922.537 633.263 917.231 627.295C911.936 621.338 908.245 616.732 905.698 613.846C863.719 574.775 823.321 552.059 784.517 540.549C745.712 529.049 709.578 528.45 676.079 534.832C642.592 541.235 613.222 553.311 588.015 567.718C562.795 582.147 535.983 604.122 507.601 630.061" stroke="white" stroke-miterlimit="10"/>
<path d="M348.49 1116.58L951.559 662.784C943.246 653.005 936.112 644.827 930.199 638.228C924.287 631.651 918.588 625.27 913.102 619.095C907.628 612.932 903.567 608.369 900.931 605.385C857.549 565.007 815.805 538.872 775.71 526.969C735.616 515.089 698.269 512.442 663.66 519.042C629.052 525.662 598.717 536.4 572.656 551.297C546.596 566.204 518.887 587.047 489.562 613.846" stroke="white" stroke-miterlimit="10"/>
<path d="M337.271 1091.7C337.899 1090.71 930.816 646.003 941.025 648.061C934.608 638.936 929.291 631.117 925.005 625.487C920.72 619.868 916.468 614.587 912.261 609.654C908.065 604.732 905.003 601.269 903.107 599.276C861.139 560.215 820.752 534.94 781.97 523.452C743.177 511.963 707.053 509.415 673.578 515.796C640.091 522.2 614.468 529.844 589.249 544.251C564.03 558.68 533.919 572.716 505.537 598.655" stroke="white" stroke-miterlimit="10"/>
<path d="M326.042 1066.83C327.298 1064.86 910.073 629.222 930.48 633.339C925.97 624.856 922.459 617.407 919.8 612.736C917.141 608.075 914.348 603.882 911.397 600.191C908.469 596.499 906.416 594.147 905.25 593.145C864.695 555.402 825.677 530.987 788.196 519.913C750.716 508.827 715.804 506.366 683.461 512.54C651.085 518.726 630.185 523.267 605.807 537.195C581.429 551.133 548.918 558.386 521.467 583.453" stroke="white" stroke-miterlimit="10"/>
<path d="M314.812 1041.97C316.697 1039.01 889.331 612.463 919.946 618.638C917.332 610.797 915.649 603.719 914.606 600.006C913.574 596.303 912.227 593.211 910.556 590.75C908.907 588.288 907.852 587.058 907.426 587.036C868.285 550.611 830.625 527.056 794.456 516.395C758.277 505.702 724.588 503.339 693.378 509.295C662.124 515.274 645.935 516.7 622.399 530.149C598.863 543.608 563.94 544.055 537.442 568.273" stroke="white" stroke-miterlimit="10"/>
<path d="M303.594 1017.1C306.106 1013.15 868.588 595.683 909.412 603.915C908.705 596.717 908.828 590.009 909.412 587.254C910.006 584.51 910.096 582.517 909.703 581.286C909.311 580.056 909.277 579.936 909.58 580.905C871.852 545.797 835.55 523.114 800.694 512.856C765.827 502.566 733.361 500.29 703.273 506.039C673.129 511.8 661.664 510.123 638.969 523.092C616.274 536.073 578.95 529.724 553.395 553.072" stroke="white" stroke-miterlimit="10"/>
<path d="M292.364 992.227C295.505 987.283 847.845 578.913 898.866 589.203C900.055 582.659 901.996 576.31 904.217 574.513C906.439 572.716 907.987 571.834 908.862 571.834C909.737 571.834 910.713 572.825 911.756 574.785C875.442 540.984 840.508 519.172 806.942 509.328C773.377 499.429 742.133 497.251 713.179 502.783C684.157 508.337 677.414 503.546 655.561 516.036C633.707 528.537 593.972 515.394 569.369 537.87" stroke="white" stroke-miterlimit="10"/>
<path d="M281.134 967.355C284.904 961.431 827.091 562.132 888.321 574.48C891.417 568.578 895.176 562.6 899.012 561.772C902.86 560.945 905.855 561.152 907.998 562.393C910.163 563.634 912.127 565.736 913.899 568.676C878.999 536.193 845.422 515.241 813.169 505.811C780.916 496.315 750.884 494.224 723.062 499.538C695.151 504.874 693.131 496.979 672.119 508.99C651.107 521.013 608.971 501.063 585.311 522.679" stroke="white" stroke-miterlimit="10"/>
<path d="M269.905 942.494C274.302 935.579 806.348 545.362 877.787 559.78C882.779 554.52 888.355 548.912 893.818 549.042C899.293 549.173 903.735 550.48 907.157 552.952C910.59 555.435 913.562 558.636 916.075 562.567C882.588 531.401 850.369 511.31 819.429 502.293C788.488 493.19 759.668 491.197 732.979 496.304C706.19 501.422 708.882 490.424 688.711 501.956C668.541 513.499 623.992 486.754 601.286 507.499" stroke="white" stroke-miterlimit="10"/>
<path d="M258.686 917.622C263.712 909.717 785.605 528.592 867.253 545.057C874.152 540.44 881.545 535.213 888.635 536.291C895.725 537.391 901.626 539.786 906.315 543.489C911.027 547.202 914.998 551.514 918.241 556.436C886.167 526.588 855.305 507.357 825.677 498.754C796.038 490.053 768.452 488.148 742.885 493.037C717.206 497.948 724.621 483.835 705.292 494.888C685.963 505.952 639.014 472.401 617.25 492.286" stroke="white" stroke-miterlimit="10"/>
<path d="M247.456 892.751C253.111 883.854 764.862 511.811 856.707 530.345C865.514 526.37 874.713 521.514 883.43 523.55C892.146 525.608 899.495 529.093 905.463 534.037C911.442 538.98 916.423 544.414 920.406 550.316C889.746 521.786 860.252 503.426 831.926 495.226C803.599 486.917 777.225 485.099 752.791 489.781C728.234 494.475 740.361 477.269 721.873 487.832C703.385 498.406 654.024 458.071 633.214 477.095" stroke="white" stroke-miterlimit="10"/>
<path d="M236.227 867.879C242.509 858.002 744.119 495.03 846.162 515.622C856.864 512.301 867.892 507.804 878.224 510.798C888.568 513.815 897.363 518.399 904.599 524.574C911.846 530.759 917.837 537.293 922.548 544.186C893.302 516.973 865.155 499.527 838.152 491.687C811.116 483.836 785.975 482.05 762.674 486.525C739.228 491.012 756.089 470.692 738.431 480.776C720.785 490.87 669.023 443.729 649.155 461.893" stroke="white" stroke-miterlimit="10"/>
<path d="M225.008 843.018C231.919 832.15 723.376 478.271 835.639 500.91C848.249 498.232 861.083 494.104 873.053 498.068C885.023 502.043 895.265 507.727 903.78 515.132C912.306 522.548 919.284 530.192 924.747 538.077C896.914 512.181 870.125 495.607 844.423 488.17C818.722 480.732 794.77 479.022 772.603 483.28C750.278 487.549 771.851 464.125 755.035 473.73C738.218 483.345 684.056 429.409 665.141 446.702" stroke="white" stroke-miterlimit="10"/>
<path d="M213.779 818.146C221.317 806.287 702.633 461.49 825.094 486.199C839.599 484.162 854.251 480.405 867.847 485.327C881.444 490.26 893.134 497.045 902.916 505.691C912.71 514.337 920.697 523.103 926.89 531.968C900.47 507.39 875.038 491.687 850.649 484.652C826.261 477.618 803.521 475.995 782.486 480.046C761.272 484.097 787.568 457.57 771.593 466.695C755.618 475.832 699.055 415.1 681.071 431.522" stroke="white" stroke-miterlimit="10"/>
<path d="M202.549 793.274C210.716 780.435 681.879 444.72 814.549 471.476C830.961 470.082 847.43 466.695 862.642 472.576C877.865 478.467 891.002 486.351 902.064 496.228C913.136 506.116 922.122 515.982 929.055 525.837C904.049 502.566 879.975 487.734 856.898 481.113C833.822 474.492 812.305 472.946 792.392 476.779C772.3 480.623 803.308 450.982 788.174 459.628C773.04 468.285 714.076 400.748 697.035 416.309" stroke="white" stroke-miterlimit="10"/>
<path d="M191.331 768.402C200.126 754.573 661.148 427.939 804.014 456.764C822.323 456.013 840.609 452.996 857.448 459.835C874.298 466.684 888.882 475.668 901.211 486.776C913.551 497.894 923.547 508.871 931.209 519.717C907.617 497.763 884.899 483.803 863.136 477.585C841.316 471.345 821.066 469.908 802.287 473.523C783.305 477.149 819.036 444.404 804.755 452.571C790.463 460.75 729.086 386.417 712.999 401.107" stroke="white" stroke-miterlimit="10"/>
<path d="M180.101 743.541C189.524 728.721 640.393 411.169 793.48 442.052C813.696 441.954 833.799 439.297 852.265 447.094C870.742 454.902 886.773 464.975 900.381 477.324C914 489.672 924.994 501.771 933.397 513.597C911.218 492.961 889.858 479.872 869.407 474.057C848.955 468.242 829.862 466.87 812.215 470.278C794.355 473.697 834.798 437.838 821.358 445.526C807.907 453.214 744.13 372.087 728.985 385.927" stroke="white" stroke-miterlimit="10"/>
<path d="M168.871 718.67C178.923 702.858 619.651 394.399 782.935 427.34C805.047 427.885 826.967 425.598 847.06 434.364C867.163 443.141 884.653 454.303 899.517 467.882C914.404 481.472 926.408 494.671 935.539 507.488C914.774 488.17 894.772 475.951 875.633 470.528C856.494 465.105 838.612 463.831 822.099 467.022C805.349 470.223 850.526 431.261 837.917 438.469C825.307 445.678 759.118 357.756 744.927 370.725" stroke="white" stroke-miterlimit="10"/>
<path d="M157.642 693.798C168.322 677.006 598.897 377.618 772.39 412.618C796.408 413.805 820.135 411.888 841.854 421.612C863.584 431.348 882.521 443.609 898.664 458.419C914.819 473.24 927.832 487.549 937.693 501.357C918.342 483.356 899.708 472.009 881.859 466.989C864.011 461.969 847.363 460.782 831.982 463.755C816.355 466.739 866.243 424.683 854.475 431.402C842.707 438.132 774.117 343.403 760.868 355.513" stroke="white" stroke-miterlimit="10"/>
<path d="M146.423 668.926C157.731 651.143 578.165 360.848 761.855 397.895C787.77 399.724 813.326 398.178 836.66 408.861C860.017 419.554 880.401 432.916 897.812 448.967C915.245 465.018 929.257 480.438 939.858 495.237C921.92 478.554 904.644 468.067 888.108 463.461C871.572 458.855 856.146 457.744 841.888 460.51C827.371 463.287 881.982 418.117 871.056 424.357C860.129 430.607 789.127 329.084 776.832 340.322" stroke="white" stroke-miterlimit="10"/>
<path d="M135.193 644.065C147.13 625.291 557.422 344.078 751.321 383.194C779.143 385.677 806.505 384.49 831.477 396.131C856.461 407.783 878.292 422.244 896.982 439.526C915.683 456.818 930.704 473.349 942.035 489.128C925.51 473.763 909.591 464.147 894.368 459.944C879.144 455.74 864.931 454.717 851.805 457.265C838.41 459.824 897.733 411.55 887.648 417.311C877.563 423.082 804.16 314.764 792.807 325.131" stroke="white" stroke-miterlimit="10"/>
<path d="M123.964 619.193C136.528 599.429 536.668 327.298 740.776 368.471C770.494 371.596 799.684 370.78 826.272 383.379C852.882 395.989 876.16 411.55 896.118 430.063C916.098 448.586 932.118 466.227 944.189 482.997C929.078 468.949 914.516 460.205 900.605 456.405C886.694 452.604 873.692 451.657 861.688 453.998C849.404 456.35 913.45 404.962 904.206 410.244C894.962 415.536 819.148 300.411 808.749 309.929" stroke="white" stroke-miterlimit="10"/>
<path d="M112.745 594.321C125.938 573.577 515.936 310.528 730.242 353.759C761.867 357.527 792.863 357.092 821.078 370.649C849.303 384.218 874.04 400.879 895.276 420.621C916.524 440.375 933.554 459.127 946.354 476.888C932.656 464.147 919.452 456.285 906.854 452.887C894.256 449.49 882.465 448.629 871.594 450.764C860.432 452.898 929.201 398.407 920.787 403.209C912.385 408.022 834.17 286.102 824.701 294.749" stroke="white" stroke-miterlimit="10"/>
<path d="M101.516 569.449C115.337 547.714 495.182 293.747 719.697 339.037C753.217 343.447 786.031 343.382 815.872 357.897C845.724 372.424 871.908 390.174 894.413 411.158C916.928 432.153 934.967 452.016 948.508 470.757C936.224 459.334 924.377 452.343 913.091 449.348C901.805 446.354 891.238 445.58 881.489 447.497C871.437 449.413 944.929 391.818 937.357 396.142C929.795 400.465 849.168 271.75 840.654 279.536" stroke="white" stroke-miterlimit="10"/>
<path d="M90.286 544.589C104.735 521.862 474.439 276.977 709.162 324.336C744.59 329.388 779.222 329.693 810.689 345.167C842.168 360.652 869.799 379.502 893.582 401.717C917.377 423.943 936.414 444.916 950.684 464.648C939.814 454.543 929.336 448.412 919.34 445.831C909.344 443.25 900.011 442.553 891.395 444.263C882.465 445.972 960.669 385.263 953.949 389.107C947.229 392.951 864.201 257.441 856.629 264.356" stroke="white" stroke-miterlimit="10"/>
<path d="M79.0564 519.717C94.134 496.01 453.685 260.207 698.617 309.613C735.941 315.319 772.39 315.983 805.484 332.416C838.59 348.87 867.668 368.809 892.719 392.265C917.781 415.721 937.817 437.805 952.838 458.528C943.381 449.74 934.261 444.481 925.577 442.303C916.894 440.125 908.772 439.515 901.29 441.007C893.47 442.499 976.397 378.686 970.519 382.05C964.64 385.415 879.212 243.099 872.582 249.154" stroke="white" stroke-miterlimit="10"/>
<path d="M67.8379 494.845C83.5437 470.147 432.953 243.426 688.083 294.89C727.314 301.239 765.58 302.273 800.29 319.664C835.022 337.076 865.548 358.115 891.877 382.802C918.218 407.499 939.253 430.694 955.003 452.397C946.96 444.927 939.197 440.538 931.826 438.763C924.456 436.988 917.545 436.466 911.195 437.74C904.498 439.025 992.136 372.097 987.099 374.983C982.051 377.869 894.222 228.758 888.545 233.941" stroke="white" stroke-miterlimit="10"/>
<path d="M56.6083 469.984C72.9423 444.295 412.21 226.667 677.538 280.189C718.665 287.18 758.748 288.585 795.085 306.945C831.443 325.316 863.416 347.454 891.025 373.371C918.633 399.3 940.677 423.605 957.169 446.299C950.538 440.146 944.144 436.629 938.075 435.257C932.006 433.885 926.318 433.449 921.101 434.517C915.514 435.584 1007.89 365.564 1003.68 367.959C999.473 370.366 909.243 214.46 904.509 218.783" stroke="white" stroke-miterlimit="10"/>
<path d="M45.3787 445.112C62.3409 418.433 391.456 209.886 667.004 265.467C710.038 273.1 751.927 274.875 789.902 294.193C827.887 313.522 861.307 336.761 890.183 363.908C919.071 391.067 942.113 416.483 959.334 440.168C954.117 435.333 949.08 432.687 944.323 431.718C939.567 430.749 935.102 430.4 931.007 431.25C926.542 432.099 1023.63 358.975 1020.26 360.892C1016.9 362.819 924.254 200.107 920.473 203.57" stroke="white" stroke-miterlimit="10"/>
<path d="M34.1602 420.24C51.7507 392.581 370.725 193.105 656.469 250.755C701.399 259.031 745.117 261.176 784.707 281.452C824.32 301.74 859.187 326.067 889.342 354.456C919.497 382.856 943.549 409.383 961.51 434.048C957.707 430.531 954.039 428.756 950.583 428.19C947.128 427.623 943.886 427.362 940.924 427.994C937.57 428.636 1039.38 352.398 1036.85 353.836C1034.33 355.273 939.286 185.776 936.448 188.368" stroke="white" stroke-miterlimit="10"/>
<path d="M22.9305 395.368C41.1493 366.718 349.97 176.335 645.924 236.032C692.761 244.961 738.285 247.466 779.502 268.701C820.741 289.946 857.055 315.373 888.478 344.993C919.901 374.624 944.963 402.262 963.653 427.917C961.263 425.718 958.975 424.814 956.798 424.651C954.622 424.487 952.625 424.313 950.796 424.738C948.564 425.162 1055.08 345.821 1053.4 346.779C1051.72 347.737 954.263 171.435 952.378 173.166" stroke="white" stroke-miterlimit="10"/>
<path d="M11.7009 370.507C30.5479 340.866 329.228 159.565 635.379 221.331C684.123 230.903 731.465 233.778 774.297 255.982C817.163 278.186 854.935 304.713 887.626 335.574C920.327 366.435 946.388 395.183 965.818 421.83C964.842 420.937 963.922 420.719 963.047 421.155C962.183 421.188 961.398 421.307 960.702 421.514C959.581 421.732 1070.82 339.276 1069.98 339.755C1069.14 340.234 969.285 157.137 968.342 157.997" stroke="white" stroke-miterlimit="10"/>
<path d="M0.482422 345.636C19.9689 315.003 308.485 142.795 624.856 206.608C675.496 216.823 724.655 220.068 769.125 243.23C813.617 266.392 852.837 294.019 886.795 326.111C920.765 358.213 947.835 388.072 967.994 415.699C968.432 416.124 968.881 416.767 969.307 417.616C969.744 418.041 970.193 418.258 970.619 418.258L1086.57 332.699L984.306 142.806" stroke="white" stroke-miterlimit="10"/>
</svg>
